<svg width="33" height="33" viewBox="0 0 33 33" fill="none" xmlns="http://www.w3.org/2000/svg">
<path d="M26.3 13.8866C25.8521 11.6169 24.6301 9.57309 22.8428 8.10428C21.0554 6.63546 18.8135 5.83276 16.5 5.83328C12.6467 5.83328 9.3 8.01995 7.63333 11.2199C5.67365 11.4317 3.86134 12.3602 2.54465 13.827C1.22796 15.2939 0.499771 17.1955 0.5 19.1666C0.5 23.5799 4.08667 27.1666 8.5 27.1666H25.8333C29.5133 27.1666 32.5 24.1799 32.5 20.4999C32.5 16.9799 29.7667 14.1266 26.3 13.8866Z" fill="#282D31"/>
<path fill-rule="evenodd" clip-rule="evenodd" d="M32.0242 15.4499C32.3329 14.5227 32.5 13.5309 32.5 12.5C32.5 7.34536 28.3213 3.16669 23.1667 3.16669C21.3242 3.16669 19.6065 3.70055 18.1597 4.62202C20.1809 4.92118 22.0947 5.76385 23.6893 7.07425C25.4647 8.53321 26.748 10.4927 27.3799 12.6863C29.2382 13.0483 30.8676 14.0473 32.0242 15.4499Z" fill="#F0432E"/>
</svg>
