<svg width="32" height="33" viewBox="0 0 32 33" fill="none" xmlns="http://www.w3.org/2000/svg">
<path d="M25.8 8.55333C25.3521 6.28362 24.1301 4.23981 22.3428 2.77099C20.5554 1.30218 18.3135 0.499477 16 0.5C12.1467 0.5 8.8 2.68667 7.13333 5.88667C5.17365 6.09844 3.36134 7.02694 2.04465 8.49376C0.727961 9.96058 -0.000228936 11.8622 5.39903e-08 13.8333C5.39903e-08 18.2467 3.58667 21.8333 8 21.8333H25.3333C29.0133 21.8333 32 18.8467 32 15.1667C32 11.6467 29.2667 8.79333 25.8 8.55333Z" fill="#282D31"/>
<line x1="8.94868" y1="23.4829" x2="7.51512" y2="27.7836" stroke="#00B2FF" stroke-width="2"/>
<line x1="16.9487" y1="23.4829" x2="15.0513" y2="29.175" stroke="#00B2FF" stroke-width="2"/>
<line x1="24.9487" y1="23.4829" x2="23.5151" y2="27.7836" stroke="#00B2FF" stroke-width="2"/>
</svg>
